<svg width="20" height="20" viewBox="0 0 20 20" fill="none" xmlns="http://www.w3.org/2000/svg">
<path d="M14.714 6.79486L16.7411 8.82189C17.0536 9.13445 17.2292 9.55838 17.2292 10.0004C17.2292 10.4424 17.0536 10.8664 16.7411 11.1789L14.714 13.206C13.4638 14.4562 11.7681 15.1586 10 15.1586C8.23189 15.1586 6.5362 14.4562 5.28596 13.206L3.25892 11.1789C2.94636 10.8664 2.77076 10.4424 2.77076 10.0004C2.77076 9.55838 2.94636 9.13445 3.25892 8.82189L5.28596 6.79486C6.5362 5.54461 8.23189 4.84223 10 4.84223C11.7681 4.84223 13.4638 5.54461 14.714 6.79486Z" stroke="#515151" stroke-linecap="round" stroke-linejoin="round"/>
<path d="M9.99996 12.0834C11.1506 12.0834 12.0833 11.1507 12.0833 10.0001C12.0833 8.84949 11.1506 7.91675 9.99996 7.91675C8.84937 7.91675 7.91663 8.84949 7.91663 10.0001C7.91663 11.1507 8.84937 12.0834 9.99996 12.0834Z" stroke="#515151" stroke-linecap="round" stroke-linejoin="round"/>
</svg>
