<svg width="20" height="20" viewBox="0 0 20 20" fill="none" xmlns="http://www.w3.org/2000/svg">
<path d="M15.575 7.65845L16.7416 8.82511C17.0521 9.13739 17.2263 9.5598 17.2263 10.0001C17.2263 10.4404 17.0521 10.8628 16.7416 11.1751L14.7166 13.2001C13.9194 14.002 12.9313 14.588 11.8452 14.9029C10.7592 15.2178 9.61085 15.2512 8.5083 15.0001" stroke="#515151" stroke-linecap="round" stroke-linejoin="round"/>
<path d="M6.08334 13.8833C5.78757 13.6784 5.50889 13.4499 5.25 13.2L3.25834 11.175C2.94792 10.8627 2.77368 10.4403 2.77368 10C2.77368 9.5597 2.94792 9.13728 3.25834 8.82501L5.28334 6.80001C6.38838 5.692 7.84798 5.00804 9.40655 4.86787C10.9651 4.72771 12.5233 5.14028 13.8083 6.03334" stroke="#515151" stroke-linecap="round" stroke-linejoin="round"/>
<path d="M8.42496 11.3583C8.08722 10.9564 7.91365 10.4418 7.93895 9.91749C7.96425 9.39316 8.18656 8.8977 8.56142 8.53021C8.93628 8.16272 9.43605 7.95029 9.96079 7.93541C10.4855 7.92052 10.9965 8.10428 11.3916 8.44993" stroke="#515151" stroke-linecap="round" stroke-linejoin="round"/>
<path d="M17.4083 2.55835L2.44165 17.525" stroke="#515151" stroke-linecap="round" stroke-linejoin="round"/>
</svg>
